HIERARCHY
ROOT Hips
{
  OFFSET -274.024 67.2248 878.513
  CHANNELS 6 Xposition Yposition Zposition Zrotation Xrotation Yrotation
  JOINT Spine
  {
    OFFSET 0 8 0
    CHANNELS 6 Xposition Yposition Zposition Zrotation Xrotation Yrotation
    JOINT Spine1
    {
      OFFSET 0 8 0
      CHANNELS 6 Xposition Yposition Zposition Zrotation Xrotation Yrotation
      JOINT Spine2
      {
        OFFSET 0 8 0
        CHANNELS 6 Xposition Yposition Zposition Zrotation Xrotation Yrotation
        JOINT Spine3
        {
          OFFSET 0 8 0
          CHANNELS 6 Xposition Yposition Zposition Zrotation Xrotation Yrotation
          JOINT Neck
          {
            OFFSET 0 17 0
            CHANNELS 6 Xposition Yposition Zposition Zrotation Xrotation Yrotation
            JOINT Head
            {
              OFFSET 0 10.8 0
              CHANNELS 6 Xposition Yposition Zposition Zrotation Xrotation Yrotation
              End Site
              {
                OFFSET 0 20.25 0
              }
            }
          }
          JOINT LeftShoulder
          {
            OFFSET 5 17 0
            CHANNELS 6 Xposition Yposition Zposition Zrotation Xrotation Yrotation
            JOINT LeftShoulder2
            {
              OFFSET 6.45 0 0
              CHANNELS 6 Xposition Yposition Zposition Zrotation Xrotation Yrotation
              JOINT LeftArm
              {
                OFFSET 6.45 0 0
                CHANNELS 6 Xposition Yposition Zposition Zrotation Xrotation Yrotation
                JOINT LeftForeArm
                {
                  OFFSET 0 -32.4 -2
                  CHANNELS 6 Xposition Yposition Zposition Zrotation Xrotation Yrotation
                  JOINT LeftHand
                  {
                    OFFSET 0 -25.65 2
                    CHANNELS 6 Xposition Yposition Zposition Zrotation Xrotation Yrotation
                    JOINT LeftHandThumb1
                    {
                      OFFSET -0.5 -1.5 2.65
                      CHANNELS 6 Xposition Yposition Zposition Zrotation Xrotation Yrotation
                      JOINT LeftHandThumb2
                      {
                        OFFSET 0 -3.8 3.7
                        CHANNELS 6 Xposition Yposition Zposition Zrotation Xrotation Yrotation
                        JOINT LeftHandThumb3
                        {
                          OFFSET 0 -3 2.7
                          CHANNELS 6 Xposition Yposition Zposition Zrotation Xrotation Yrotation
                          End Site
                          {
                            OFFSET 0 -2.3 1.8
                          }
                        }
                      }
                    }
                    JOINT LeftHandIndex
                    {
                      OFFSET 0 -1.9 1.6
                      CHANNELS 6 Xposition Yposition Zposition Zrotation Xrotation Yrotation
                      JOINT LeftHandIndex1
                      {
                        OFFSET 0 -8.3 1.9
                        CHANNELS 6 Xposition Yposition Zposition Zrotation Xrotation Yrotation
                        JOINT LeftHandIndex2
                        {
                          OFFSET 0 -4.5 0
                          CHANNELS 6 Xposition Yposition Zposition Zrotation Xrotation Yrotation
                          JOINT LeftHandIndex3
                          {
                            OFFSET 0 -3.4 0
                            CHANNELS 6 Xposition Yposition Zposition Zrotation Xrotation Yrotation
                            End Site
                            {
                              OFFSET 0 -2.6 0
                            }
                          }
                        }
                      }
                    }
                    JOINT LeftHandMiddle
                    {
                      OFFSET -0.25 -2.2 0.4
                      CHANNELS 6 Xposition Yposition Zposition Zrotation Xrotation Yrotation
                      JOINT LeftHandMiddle1
                      {
                        OFFSET 0 -8.3 1
                        CHANNELS 6 Xposition Yposition Zposition Zrotation Xrotation Yrotation
                        JOINT LeftHandMiddle2
                        {
                          OFFSET 0 -4.65 0
                          CHANNELS 6 Xposition Yposition Zposition Zrotation Xrotation Yrotation
                          JOINT LeftHandMiddle3
                          {
                            OFFSET 0 -3.3 0
                            CHANNELS 6 Xposition Yposition Zposition Zrotation Xrotation Yrotation
                            End Site
                            {
                              OFFSET 0 -2.7 0
                            }
                          }
                        }
                      }
                    }
                    JOINT LeftHandRing
                    {
                      OFFSET -0.5 -2.15 -0.8
                      CHANNELS 6 Xposition Yposition Zposition Zrotation Xrotation Yrotation
                      JOINT LeftHandRing1
                      {
                        OFFSET 0 -7.75 -0.2
                        CHANNELS 6 Xposition Yposition Zposition Zrotation Xrotation Yrotation
                        JOINT LeftHandRing2
                        {
                          OFFSET 0 -3.8 0
                          CHANNELS 6 Xposition Yposition Zposition Zrotation Xrotation Yrotation
                          JOINT LeftHandRing3
                          {
                            OFFSET 0 -3.4 0
                            CHANNELS 6 Xposition Yposition Zposition Zrotation Xrotation Yrotation
                            End Site
                            {
                              OFFSET 0 -2.6 0
                            }
                          }
                        }
                      }
                    }
                    JOINT LeftHandPinky
                    {
                      OFFSET -0.75 -1.75 -1.85
                      CHANNELS 6 Xposition Yposition Zposition Zrotation Xrotation Yrotation
                      JOINT LeftHandPinky1
                      {
                        OFFSET 0 -7.15 -1
                        CHANNELS 6 Xposition Yposition Zposition Zrotation Xrotation Yrotation
                        JOINT LeftHandPinky2
                        {
                          OFFSET 0 -3 0
                          CHANNELS 6 Xposition Yposition Zposition Zrotation Xrotation Yrotation
                          JOINT LeftHandPinky3
                          {
                            OFFSET 0 -2.35 0
                            CHANNELS 6 Xposition Yposition Zposition Zrotation Xrotation Yrotation
                            End Site
                            {
                              OFFSET 0 -2.1 0
                            }
                          }
                        }
                      }
                    }
                  }
                }
              }
            }
          }
          JOINT RightShoulder
          {
            OFFSET -5 17 0
            CHANNELS 6 Xposition Yposition Zposition Zrotation Xrotation Yrotation
            JOINT RightShoulder2
            {
              OFFSET -6.45 0 0
              CHANNELS 6 Xposition Yposition Zposition Zrotation Xrotation Yrotation
              JOINT RightArm
              {
                OFFSET -6.45 0 0
                CHANNELS 6 Xposition Yposition Zposition Zrotation Xrotation Yrotation
                JOINT RightForeArm
                {
                  OFFSET 0 -32.4 -2
                  CHANNELS 6 Xposition Yposition Zposition Zrotation Xrotation Yrotation
                  JOINT RightHand
                  {
                    OFFSET 0 -25.65 2
                    CHANNELS 6 Xposition Yposition Zposition Zrotation Xrotation Yrotation
                    JOINT RightHandThumb1
                    {
                      OFFSET 0.5 -1.5 2.65
                      CHANNELS 6 Xposition Yposition Zposition Zrotation Xrotation Yrotation
                      JOINT RightHandThumb2
                      {
                        OFFSET 0 -3.8 3.7
                        CHANNELS 6 Xposition Yposition Zposition Zrotation Xrotation Yrotation
                        JOINT RightHandThumb3
                        {
                          OFFSET 0 -3 2.7
                          CHANNELS 6 Xposition Yposition Zposition Zrotation Xrotation Yrotation
                          End Site
                          {
                            OFFSET 0 -2.3 1.8
                          }
                        }
                      }
                    }
                    JOINT RightHandIndex
                    {
                      OFFSET 0 -1.9 1.6
                      CHANNELS 6 Xposition Yposition Zposition Zrotation Xrotation Yrotation
                      JOINT RightHandIndex1
                      {
                        OFFSET 0 -8.3 1.9
                        CHANNELS 6 Xposition Yposition Zposition Zrotation Xrotation Yrotation
                        JOINT RightHandIndex2
                        {
                          OFFSET 0 -4.5 0
                          CHANNELS 6 Xposition Yposition Zposition Zrotation Xrotation Yrotation
                          JOINT RightHandIndex3
                          {
                            OFFSET 0 -3.4 0
                            CHANNELS 6 Xposition Yposition Zposition Zrotation Xrotation Yrotation
                            End Site
                            {
                              OFFSET 0 -2.6 0
                            }
                          }
                        }
                      }
                    }
                    JOINT RightHandMiddle
                    {
                      OFFSET 0.25 -2.2 0.4
                      CHANNELS 6 Xposition Yposition Zposition Zrotation Xrotation Yrotation
                      JOINT RightHandMiddle1
                      {
                        OFFSET 0 -8.3 1
                        CHANNELS 6 Xposition Yposition Zposition Zrotation Xrotation Yrotation
                        JOINT RightHandMiddle2
                        {
                          OFFSET 0 -4.65 0
                          CHANNELS 6 Xposition Yposition Zposition Zrotation Xrotation Yrotation
                          JOINT RightHandMiddle3
                          {
                            OFFSET 0 -3.3 0
                            CHANNELS 6 Xposition Yposition Zposition Zrotation Xrotation Yrotation
                            End Site
                            {
                              OFFSET 0 -2.7 0
                            }
                          }
                        }
                      }
                    }
                    JOINT RightHandRing
                    {
                      OFFSET 0.5 -2.15 -0.8
                      CHANNELS 6 Xposition Yposition Zposition Zrotation Xrotation Yrotation
                      JOINT RightHandRing1
                      {
                        OFFSET 0 -7.75 -0.2
                        CHANNELS 6 Xposition Yposition Zposition Zrotation Xrotation Yrotation
                        JOINT RightHandRing2
                        {
                          OFFSET 0 -3.8 0
                          CHANNELS 6 Xposition Yposition Zposition Zrotation Xrotation Yrotation
                          JOINT RightHandRing3
                          {
                            OFFSET 0 -3.4 0
                            CHANNELS 6 Xposition Yposition Zposition Zrotation Xrotation Yrotation
                            End Site
                            {
                              OFFSET 0 -2.6 0
                            }
                          }
                        }
                      }
                    }
                    JOINT RightHandPinky
                    {
                      OFFSET 0.75 -1.75 -1.85
                      CHANNELS 6 Xposition Yposition Zposition Zrotation Xrotation Yrotation
                      JOINT RightHandPinky1
                      {
                        OFFSET 0 -7.15 -1
                        CHANNELS 6 Xposition Yposition Zposition Zrotation Xrotation Yrotation
                        JOINT RightHandPinky2
                        {
                          OFFSET 0 -3 0
                          CHANNELS 6 Xposition Yposition Zposition Zrotation Xrotation Yrotation
                          JOINT RightHandPinky3
                          {
                            OFFSET 0 -2.35 0
                            CHANNELS 6 Xposition Yposition Zposition Zrotation Xrotation Yrotation
                            End Site
                            {
                              OFFSET 0 -2.1 0
                            }
                          }
                        }
                      }
                    }
                  }
                }
              }
            }
          }
        }
      }
    }
  }
  JOINT LeftUpLeg
  {
    OFFSET 8 0 0
    CHANNELS 6 Xposition Yposition Zposition Zrotation Xrotation Yrotation
    JOINT LeftLeg
    {
      OFFSET 0 -45 -1
      CHANNELS 6 Xposition Yposition Zposition Zrotation Xrotation Yrotation
      JOINT LeftFoot
      {
        OFFSET 0 -41 -2
        CHANNELS 6 Xposition Yposition Zposition Zrotation Xrotation Yrotation
        JOINT LeftToeBase
        {
          OFFSET 0 -7.5 12.5
          CHANNELS 6 Xposition Yposition Zposition Zrotation Xrotation Yrotation
          JOINT LeftFootToe
          {
            OFFSET 0 0 4
            CHANNELS 6 Xposition Yposition Zposition Zrotation Xrotation Yrotation
            End Site
            {
              OFFSET 0 0 0
            }
          }
        }
      }
    }
  }
  JOINT RightUpLeg
  {
    OFFSET -8 0 0
    CHANNELS 6 Xposition Yposition Zposition Zrotation Xrotation Yrotation
    JOINT RightLeg
    {
      OFFSET 0 -45 -1
      CHANNELS 6 Xposition Yposition Zposition Zrotation Xrotation Yrotation
      JOINT RightFoot
      {
        OFFSET 0 -41 -2
        CHANNELS 6 Xposition Yposition Zposition Zrotation Xrotation Yrotation
        JOINT RightToeBase
        {
          OFFSET 0 -7.5 12.5
          CHANNELS 6 Xposition Yposition Zposition Zrotation Xrotation Yrotation
          JOINT RightFootToe
          {
            OFFSET 0 0 4
            CHANNELS 6 Xposition Yposition Zposition Zrotation Xrotation Yrotation
            End Site
            {
              OFFSET 0 0 0
            }
          }
        }
      }
    }
  }
}
MOTION
Frames:	3
Frame Time:	0.0111111
-206.83 92.6071 1333.43 -2.59491 2.17522 139.526 -2.27374e-13 8 0 -6.58127 6.69751 -0.866491 1.13687e-13 8 -2.27374e-13 0.840527 2.64728 1.86313 0 8 0 0.431008 1.32051 0.936378 0 8 -2.27374e-13 0.430832 1.31993 0.935982 0 17 0 2.37797 7.88857 -2.8311 0 10.8 0 6.51767 10.7675 -6.67366 5 17 0 -10.1027 4.70841 -7.88135 6.45 -5.68434e-14 0 0.514521 -0.13104 -0.354668 6.45 -5.68434e-14 0 29.2582 8.23807 -6.69912 0 -32.4 -2 -23.6905 -55.7667 -48.3012 0 -25.65 2 24.3265 -15.5787 -25.7922 -0.5 -1.5 2.65 -44.633 -35.7184 47.8595 -2.27374e-13 -3.8 3.7 -0.0220024 28.0218 -0.00259992 2.27374e-13 -3 2.7 -0.00436584 6.0845 0.00865471 0 -1.9 1.6 1.27222e-14 6.36111e-15 -6.36111e-15 0 -8.3 1.9 -20.3585 12.5971 2.48129 -1.13687e-13 -4.5 0 -77.8109 -0.00253217 0.00249895 0 -3.4 -5.68434e-14 -62.3299 0.00270807 -0.00263201 -0.25 -2.2 0.4 1.27222e-14 6.36111e-15 -6.36111e-15 0 -8.3 1 -46.4315 14.3604 8.19532 0 -4.65 0 -52.8131 0.0018089 -0.000964069 0 -3.3 0 -90.0002 1.90833e-14 -2.8625e-14 -0.5 -2.15 -0.8 1.27222e-14 6.36111e-15 -6.36111e-15 1.13687e-13 -7.75 -0.2 -72.4287 8.79695 12.6271 0 -3.8 5.68434e-14 -52.7263 -0.000441388 0.00196339 5.68434e-14 -3.4 -5.68434e-14 -90.0002 0.00281162 -1.59028e-14 -0.75 -1.75 -1.85 1.27222e-14 6.36111e-15 -6.36111e-15 0 -7.15 -1 -81.6306 6.1002 15.3133 0 -3 -1.13687e-13 -52.3279 0.000128989 0.00537811 5.68434e-14 -2.35 0 -36.1248 -0.00382755 0.00286516 -5 17 0 1.11764 1.97945 -5.47748 -6.45 -5.68434e-14 2.27374e-13 -1.16104 0.0818034 0.446858 -6.45 5.68434e-14 0 -26.3371 12.6051 -5.66891 1.13687e-13 -32.4 -2 53.4074 -67.0778 58.2796 0 -25.65 2 0.919126 4.24828 15.1506 0.5 -1.5 2.65 10.6644 27.2098 -68.3539 0 -3.8 3.7 0.319372 10.1657 0.00359288 0 -3 2.7 0.0405901 55.716 -0.0291309 2.84217e-14 -1.9 1.6 3.97569e-16 0 3.18055e-15 2.84217e-14 -8.3 1.9 0.314242 -4.80528 -0.00523681 0 -4.5 -2.27374e-13 -3.85845e-08 0.00110381 0.00200281 -1.42109e-14 -3.4 0 -1.1224e-07 0.00340644 0.00188786 0.25 -2.2 0.4 3.97569e-16 0 3.18055e-15 0 -8.3 1 0.253219 -3.06911 -0.0158378 0 -4.65 -2.27374e-13 21.2706 -0.0924086 0.0437725 0 -3.3 0 16.5772 -0.0509367 0.044717 0.5 -2.15 -0.8 3.97569e-16 0 3.18055e-15 2.84217e-14 -7.75 -0.2 0.130617 0.457355 -0.0340626 -1.42109e-14 -3.8 0 21.8125 -0.108902 0.0786443 0 -3.4 0 16.7608 -0.0574727 0.0718352 0.75 -1.75 -1.85 3.97569e-16 0 3.18055e-15 0 -7.15 -1 0.0700497 2.19802 -0.0384651 2.84217e-14 -3 0 0.0174822 0.00297696 -0.00601206 0 -2.35 0 0.0174547 0.00216415 -0.00599041 8 -2.84217e-14 0 -6.76133 -1.73604 -41.4473 2.27374e-13 -45 -1 -0.0958999 8.88442 2.90564 -2.27374e-13 -41 -2 1.23026 -5.44004 7.81339 -2.27374e-13 -7.5 12.5 -1.21329e-20 3.03321e-21 -3.18055e-15 -2.27374e-13 0 4 -2.22047 -3.99584 87.3127 -8 0 0 -6.69569 -19.2441 17.687 0 -45 -1 0.0592809 13.986 -0.775481 0 -41 -2 4.90146 -3.79992 11.3661 0 -7.5 12.5 -1.98785e-16 7.95139e-16 -0 -2.84217e-14 2.84217e-14 4 2.98249 -0.583776 22.0457 
-206.727 92.5628 1333.33 -2.78823 2.31865 139.717 -1.13687e-13 8 0 -6.71952 6.87501 -0.884273 0 8 2.27374e-13 0.810074 2.71087 1.87007 0 8 2.27374e-13 0.416078 1.35244 0.939783 0 8 -2.27374e-13 0.415904 1.35183 0.939368 -2.27374e-13 17 -2.27374e-13 2.40556 7.72636 -2.86725 0 10.8 0 6.51666 10.7914 -6.77569 5 17 -2.27374e-13 -10.0919 4.55632 -7.92306 6.45 0 0 0.518145 -0.128106 -0.342499 6.45 0 0 29.2003 8.32017 -6.81397 1.13687e-13 -32.4 -2 -23.3101 -55.7727 -48.1451 0 -25.65 2 24.6831 -15.928 -25.5665 -0.5 -1.5 2.65 -44.6737 -35.6838 47.9202 0 -3.8 3.7 -0.0219675 28.2653 -0.00258866 -2.27374e-13 -3 2.7 -0.00440107 6.28404 0.00884219 1.13687e-13 -1.9 1.6 0 6.36111e-15 -0 -1.13687e-13 -8.3 1.9 -20.6125 12.6391 2.52215 1.13687e-13 -4.5 5.68434e-14 -77.6294 -0.00258105 0.00250733 0 -3.4 1.13687e-13 -62.0426 0.0027015 -0.00271999 -0.25 -2.2 0.4 0 6.36111e-15 -0 0 -8.3 1 -46.6013 14.3401 8.21746 -2.27374e-13 -4.65 5.68434e-14 -52.6215 0.00187674 -0.00094902 0 -3.3 5.68434e-14 -90.0002 -6.36111e-15 -9.54166e-15 -0.5 -2.15 -0.8 0 6.36111e-15 -0 0 -7.75 -0.2 -72.4987 8.77172 12.6263 0 -3.8 0 -52.6437 -0.000375439 0.00195686 0 -3.4 0 -90.0002 0.00281162 2.8625e-14 -0.75 -1.75 -1.85 0 6.36111e-15 -0 0 -7.15 -1 -81.6482 6.09449 15.3175 0 -3 5.68434e-14 -52.3449 0.000146504 0.00537753 0 -2.35 0 -36.137 -0.00382166 0.00286476 -5 17 0 1.19768 1.84657 -5.38213 -6.45 -2.84217e-14 0 -1.15511 0.0799672 0.447316 -6.45 0 0 -26.9112 12.2852 -6.04082 0 -32.4 -2 52.5081 -67.2135 57.6087 5.68434e-14 -25.65 2 0.940675 3.68326 15.2432 0.5 -1.5 2.65 11.6267 27.1933 -69.1509 0 -3.8 3.7 0.319372 10.6028 0.00359957 -2.27374e-13 -3 2.7 0.0406076 55.716 -0.0291399 0 -1.9 1.6 9.14409e-15 0 7.95139e-16 0 -8.3 1.9 0.271261 -4.47433 -0.00475264 1.42109e-14 -4.5 0 -4.01674e-08 0.00108528 0.00212059 -1.42109e-14 -3.4 0 -1.16988e-07 0.00335346 0.0019988 0.25 -2.2 0.4 9.14409e-15 0 7.95139e-16 0 -8.3 1 0.230633 -2.66879 -0.0160951 0 -4.65 0 18.8192 -0.112015 0.0541388 0 -3.3 0 14.8856 -0.0648445 0.0553343 0.5 -2.15 -0.8 9.14409e-15 0 7.95139e-16 0 -7.75 -0.2 0.149333 0.993336 -0.0369563 2.84217e-14 -3.8 0 18.3579 -0.146088 0.0995997 0 -3.4 -2.27374e-13 14.2258 -0.0857056 0.0944869 0.75 -1.75 -1.85 9.14409e-15 0 7.95139e-16 0 -7.15 -1 0.109415 2.80311 -0.0418805 0 -3 2.27374e-13 3.03783e-07 0.00293109 -0.00593824 5.68434e-14 -2.35 2.27374e-13 2.2043e-07 0.00213335 -0.00592013 8 2.84217e-14 2.27374e-13 -6.97516 -1.70712 -41.3419 2.27374e-13 -45 -1 -0.0992357 8.95542 2.9474 -2.27374e-13 -41 -2 1.23289 -5.55722 7.29945 2.27374e-13 -7.5 12.5 4.85314e-20 1.21329e-20 -0 0 -8.67362e-19 4 -2.32271 -3.91118 87.349 -8 0 0 -6.91772 -19.195 17.5065 0 -45 -1 0.0586087 13.9812 -0.766481 1.13687e-13 -41 -2 5.01859 -3.58588 11.6329 5.68434e-14 -7.5 12.5 1.98785e-16 1.59028e-15 -0 2.84217e-14 0 4 2.77209 -0.720415 22.0763 
-206.603 92.5109 1333.21 -3.01688 2.48848 139.922 0 8 0 -6.89942 7.0612 -0.906062 -1.13687e-13 8 -2.27374e-13 0.783092 2.78342 1.87494 0 8 0 0.402922 1.38883 0.941599 0 8 0 0.40275 1.38818 0.941173 0 17 0 2.4325 7.54399 -2.90261 -1.13687e-13 10.8 0 6.51207 10.808 -6.87752 5 17 2.27374e-13 -10.0933 4.37821 -7.9596 6.45 5.68434e-14 0 0.515876 -0.130776 -0.332189 6.45 5.68434e-14 0 29.2009 8.42676 -6.94758 -1.13687e-13 -32.4 -2 -22.9489 -55.7861 -47.9831 0 -25.65 2 25.0673 -16.2757 -25.3025 -0.5 -1.5 2.65 -44.7531 -35.6412 47.9874 0 -3.8 3.7 -0.0219668 28.4382 -0.00257575 0 -3 2.7 -0.00443315 6.4993 0.00896877 0 -1.9 1.6 -3.18055e-15 -9.54166e-15 -3.18055e-15 1.13687e-13 -8.3 1.9 -20.9204 12.6681 2.56739 -1.13687e-13 -4.5 0 -77.4648 -0.00262774 0.00251559 -1.13687e-13 -3.4 5.68434e-14 -61.7839 0.00269672 -0.00280409 -0.25 -2.2 0.4 -3.18055e-15 -9.54166e-15 -3.18055e-15 0 -8.3 1 -46.8205 14.3077 8.24365 2.27374e-13 -4.65 -1.13687e-13 -52.4486 0.00194625 -0.000934029 0 -3.3 0 -90.0002 -1.90833e-14 -1.27222e-14 -0.5 -2.15 -0.8 -3.18055e-15 -9.54166e-15 -3.18055e-15 0 -7.75 -0.2 -72.6111 8.73174 12.6251 2.27374e-13 -3.8 0 -52.5506 -0.000310718 0.00195038 0 -3.4 5.68434e-14 -90.0002 0.00281162 -3.18055e-15 -0.75 -1.75 -1.85 -3.18055e-15 -9.54166e-15 -3.18055e-15 1.13687e-13 -7.15 -1 -81.6971 6.07655 15.3271 0 -3 -5.68434e-14 -52.3368 0.000163938 0.00537694 0 -2.35 5.68434e-14 -36.1312 -0.00381574 0.00286436 -5 17 2.27374e-13 1.28545 1.69152 -5.26597 -6.45 0 0 -1.14376 0.0851555 0.461025 -6.45 5.68434e-14 -2.27374e-13 -27.4993 11.9581 -6.45189 -1.13687e-13 -32.4 -2 51.6356 -67.3287 56.9265 -1.13687e-13 -25.65 2 1.0257 3.20158 15.3766 0.5 -1.5 2.65 12.5019 27.1271 -69.9862 2.27374e-13 -3.8 3.7 0.319374 11.0138 0.00360625 0 -3 2.7 0.0406251 55.716 -0.0291488 -1.42109e-14 -1.9 1.6 -5.1684e-15 0 -7.95139e-16 1.42109e-14 -8.3 1.9 0.228562 -4.10609 -0.00408628 1.42109e-14 -4.5 0 -4.17202e-08 0.00106758 0.00223908 0 -3.4 2.27374e-13 -1.21605e-07 0.00330146 0.00211042 0.25 -2.2 0.4 -5.1684e-15 0 -7.95139e-16 1.42109e-14 -8.3 1 0.211221 -2.23604 -0.0162709 2.84217e-14 -4.65 0 15.8372 -0.122068 0.0642213 0 -3.3 0 12.7183 -0.0752626 0.0650084 0.5 -2.15 -0.8 -5.1684e-15 0 -7.95139e-16 1.42109e-14 -7.75 -0.2 0.177128 1.55143 -0.0398638 1.42109e-14 -3.8 0 14.7628 -0.156136 0.104695 2.84217e-14 -3.4 0 11.5572 -0.0986065 0.100789 0.75 -1.75 -1.85 -5.1684e-15 0 -7.95139e-16 1.42109e-14 -7.15 -1 0.160777 3.42354 -0.0479294 1.42109e-14 -3 -2.27374e-13 2.95472e-07 0.00288597 -0.00586606 0 -2.35 0 2.14768e-07 0.00210307 -0.00585112 8 2.84217e-14 0 -7.21613 -1.67445 -41.1687 0 -45 -1 -0.102701 9.02722 2.99408 0 -41 -2 1.22732 -5.69126 6.77418 -2.27374e-13 -7.5 12.5 -0 -3.03321e-20 -0 2.27374e-13 -2.1684e-19 4 -2.43592 -3.81421 87.2857 -8 0 2.27374e-13 -7.19083 -19.1076 17.3209 0 -45 -1 0.0593966 13.9576 -0.761602 0 -41 -2 5.18491 -3.29769 11.9662 0 -7.5 12.5 3.97569e-16 7.95139e-16 -1.59028e-15 0 0 4 2.48203 -0.906023 22.0808 
